<?xml version="1.0" encoding="UTF-8" standalone="no"?>
<!-- Created with Inkscape (http://www.inkscape.org/) -->

<svg
   width="42.257629mm"
   height="19.84214mm"
   viewBox="0 0 44.257629 21.84214"
   version="1.1"
   id="svg8"
   inkscape:export-filename="/home/elise/Documents/Eragatas_logo/ergatas2.png"
   inkscape:export-xdpi="96"
   inkscape:export-ydpi="96"
   inkscape:version="1.2.2 (b0a8486541, 2022-12-01)"
   sodipodi:docname="ergatas-logo-green.svg"
   xmlns:inkscape="http://www.inkscape.org/namespaces/inkscape"
   xmlns:sodipodi="http://sodipodi.sourceforge.net/DTD/sodipodi-0.dtd"
   xmlns="http://www.w3.org/2000/svg"
   xmlns:svg="http://www.w3.org/2000/svg"
   xmlns:rdf="http://www.w3.org/1999/02/22-rdf-syntax-ns#"
   xmlns:cc="http://creativecommons.org/ns#"
   xmlns:dc="http://purl.org/dc/elements/1.1/">
  <defs
     id="defs2" />
  <sodipodi:namedview
     id="base"
     pagecolor="#ffffff"
     bordercolor="#666666"
     borderopacity="1.0"
     inkscape:pageopacity="0.0"
     inkscape:pageshadow="2"
     inkscape:zoom="4"
     inkscape:cx="-20.75"
     inkscape:cy="45.5"
     inkscape:document-units="mm"
     inkscape:current-layer="g890"
     showgrid="false"
     inkscape:window-width="2560"
     inkscape:window-height="1378"
     inkscape:window-x="0"
     inkscape:window-y="0"
     inkscape:window-maximized="1"
     showguides="false"
     inkscape:showpageshadow="2"
     inkscape:pagecheckerboard="0"
     inkscape:deskcolor="#d1d1d1" />
  <metadata
     id="metadata5">
    <rdf:RDF>
      <cc:Work
         rdf:about="">
        <dc:format>image/svg+xml</dc:format>
        <dc:type
           rdf:resource="http://purl.org/dc/dcmitype/StillImage" />
      </cc:Work>
    </rdf:RDF>
  </metadata>
  <g
     inkscape:groupmode="layer"
     id="layer2"
     inkscape:label="Layer 2"
     transform="translate(-88.440585,-39.402523)" />
  <g
     inkscape:label="Layer 1"
     inkscape:groupmode="layer"
     id="layer1"
     style="display:inline"
     transform="translate(-88.440585,-39.402523)">
    <g
       id="g906">
      <g
         id="flowRoot4080"
         style="font-style:normal;font-variant:normal;font-weight:normal;font-stretch:normal;font-size:40px;line-height:1.25;font-family:Z003;-inkscape-font-specification:Z003;letter-spacing:0px;word-spacing:0px;fill:#d4aa00;fill-opacity:1;stroke:none"
         transform="matrix(0.52105336,0,0,0.55317057,-126.52519,-86.538013)"
         aria-label="rgatas" />
      <g
         id="g890"
         style="fill:#468f72;fill-opacity:1">
        <path
           style="fill:#468f72;stroke-width:0.12230608;fill-opacity:1"
           d="m 104.0201,54.033579 c -2.07508,2.391142 -4.502191,4.671708 -7.544922,5.733205 -2.324967,0.839918 -5.267222,0.384918 -6.872854,-1.603346 -1.40005,-1.852371 -1.280415,-4.33344 -0.941377,-6.513355 0.371967,-2.780889 1.662061,-5.464125 3.794735,-7.318729 2.010773,-1.795375 4.548761,-2.891164 7.137285,-3.556337 -4.227944,1.729805 -8.076777,4.95882 -9.647781,9.349293 -0.817318,2.308809 -1.000772,5.093518 0.412512,7.214284 1.041542,1.6118 3.105935,2.231668 4.93161,1.904782 3.096595,-0.523898 5.708092,-2.493609 8.001042,-4.528257 0.24651,-0.223654 0.48969,-0.450983 0.72975,-0.68154 z"
           id="path3721"
           inkscape:connector-curvature="0" />
        <path
           style="fill:#468f72;stroke-width:0.13229166;fill-opacity:1"
           id="path3745"
           ry="1.6395321"
           rx="5.4008126"
           cy="75.759567"
           cx="60.855583"
           d=""
           inkscape:connector-curvature="0" />
        <path
           style="fill:#468f72;stroke-width:0.22798628;fill-opacity:1"
           d="m 97.014802,50.25309 c -1.728026,0.947523 -3.289447,2.184271 -5.081958,3.015892 -0.438581,0.179989 -0.892326,0.390522 -1.375129,0.389483 -0.515867,-0.03771 -0.98781,-0.296425 -1.398827,-0.594703 0.934982,-0.706916 1.869582,-1.426055 2.895789,-1.997659 0.987536,-0.506562 2.105674,-0.67924 3.205151,-0.696203 0.585985,-0.01826 1.174309,-0.02784 1.754974,-0.11681 z"
           id="rect3759-7-3"
           inkscape:connector-curvature="0" />
        <path
           style="fill:#468f72;stroke-width:0.08476346;fill-opacity:1"
           d="m 97.689358,39.466238 c -0.192412,0.74283 -0.104908,1.647945 -0.732366,2.202666 -0.238503,0.171215 -0.772307,0.76391 -0.627093,0.106898 -0.03879,-0.850241 0.664315,-1.438632 1.149698,-2.044018 0.07205,-0.08679 0.142647,-0.174918 0.209761,-0.265546 z"
           id="rect3759-6-5-5"
           inkscape:connector-curvature="0" />
        <path
           style="fill:#468f72;stroke-width:0.08476346;fill-opacity:1"
           d="m 99.814117,41.928655 c -0.913578,-0.0433 -1.889202,-0.423192 -2.76437,0.0029 -0.243262,0.136771 -0.881435,0.387755 -0.252597,0.424363 0.825036,0.279119 1.673575,-0.01117 2.46085,-0.268476 0.183996,-0.05757 0.368814,-0.112978 0.556117,-0.15883 z"
           id="rect3759-6-5-5-2"
           inkscape:connector-curvature="0" />
        <path
           style="fill:#3a775f;stroke-width:0.09647567;fill-opacity:1"
           d="m 95.794385,40.118219 c -0.138514,0.818036 0.04637,1.770459 -0.541039,2.448353 -0.191507,0.128063 -0.644719,0.755883 -0.7479,0.520793 -0.09327,-0.527735 -0.0381,-1.087744 0.277105,-1.535608 0.30161,-0.502354 0.69766,-0.939908 1.011834,-1.433538 z"
           id="rect3759-6-5-5-8"
           inkscape:connector-curvature="0" />
        <path
           style="fill:#3a775f;stroke-width:0.09647567;fill-opacity:1"
           d="m 98.316511,42.548435 c -1.021639,0.04857 -2.127399,-0.255281 -3.077884,0.246017 -0.176918,0.150805 -1.06134,0.545192 -0.405795,0.538752 0.710086,0.155667 1.443445,0.04807 2.106707,-0.23486 0.461599,-0.17677 0.909083,-0.389482 1.376972,-0.549909 z"
           id="rect3759-6-5-5-2-9"
           inkscape:connector-curvature="0" />
        <path
           style="fill:#468f72;stroke-width:0.11129595;fill-opacity:1"
           d="m 93.959291,41.041798 c -0.0648,0.915807 0.242582,1.924711 -0.27802,2.756603 -0.228693,0.28237 -0.57693,0.690784 -0.838289,0.809543 -0.16126,-0.590432 -0.232421,-1.244381 0.08111,-1.799997 0.289239,-0.620288 0.718125,-1.161376 1.035196,-1.766149 z"
           id="rect3759-6-5-5-7"
           inkscape:connector-curvature="0" />
        <path
           style="fill:#468f72;stroke-width:0.11129595;fill-opacity:1"
           d="m 97.22049,43.578987 c -1.132557,0.145227 -2.37083,-0.07869 -3.404951,0.5082 -0.19749,0.17182 -0.865116,0.568059 -0.733718,0.698473 0.744306,0.07884 1.521984,0.08095 2.211162,-0.253861 0.662895,-0.275351 1.271769,-0.662314 1.927507,-0.952812 z"
           id="rect3759-6-5-5-2-3"
           inkscape:connector-curvature="0" />
        <path
           style="fill:#3e8165;stroke-width:0.13091169;fill-opacity:1"
           d="m 92.044939,41.824618 c 0.09891,1.128265 0.644266,2.287228 0.224479,3.408895 -0.196163,0.409615 -0.475225,0.772835 -0.758037,1.125576 -0.270073,-0.681159 -0.522142,-1.42949 -0.298284,-2.162832 0.18998,-0.819342 0.588595,-1.569374 0.831842,-2.371639 z"
           id="rect3759-6-5-5-7-2"
           inkscape:connector-curvature="0" />
        <path
           style="fill:#3e8165;stroke-width:0.13091169;fill-opacity:1"
           d="m 96.215634,44.65818 c -1.216344,0.238084 -2.566182,0.07654 -3.653311,0.770265 -0.361294,0.278407 -0.662622,0.625692 -0.950688,0.97691 0.834692,0.04604 1.717178,0.04534 2.458861,-0.400146 0.752326,-0.387901 1.411159,-0.92844 2.145138,-1.347029 z"
           id="rect3759-6-5-5-2-3-9"
           inkscape:connector-curvature="0" />
        <path
           style="fill:#468f72;stroke-width:0.15244794;fill-opacity:1"
           d="m 90.575826,42.901673 c 0.105738,1.419815 0.663977,2.856842 0.262407,4.276468 -0.200382,0.53712 -0.513197,1.023437 -0.830618,1.497635 -0.275184,-0.843804 -0.540538,-1.741733 -0.339603,-2.632816 0.186901,-1.078054 0.640124,-2.084393 0.907814,-3.141287 z"
           id="rect3759-6-5-5-7-2-9"
           inkscape:connector-curvature="0" />
        <path
           style="fill:#468f72;stroke-width:0.15244794;fill-opacity:1"
           d="m 95.017399,46.509873 c -1.263403,0.284609 -2.678365,0.131709 -3.792572,0.899476 -0.446007,0.370604 -0.781803,0.852639 -1.110447,1.32534 0.81923,0.04331 1.700755,0.07357 2.419521,-0.392868 0.900844,-0.506728 1.633003,-1.252603 2.483498,-1.831948 z"
           id="rect3759-6-5-5-2-3-9-4"
           inkscape:connector-curvature="0" />
        <path
           inkscape:connector-curvature="0"
           d="m 433.28806,253.20367 q 1.32266,-2.77333 2.66666,-4.07466 1.344,-1.32267 2.26134,-1.32267 0.93866,0 1.25866,0.704 0.34134,0.68267 0.10667,1.792 -0.21333,1.088 -1.04533,2.00533 -0.832,0.91734 -1.96267,0.91734 -0.29867,0 -0.68267,-0.17067 0.832,-0.832 1.06667,-2.00533 0.14933,-0.68267 -0.40533,-0.68267 -0.40534,0 -1.00267,0.576 -0.576,0.55467 -1.216,1.55733 -0.61867,0.98134 -1.216,2.53867 -0.59733,1.536 -0.93867,3.28533 -0.0426,0.21334 -0.256,1.81334 -0.68266,0.0427 -0.87466,0.0427 -1.216,0 -1.664,-0.42667 -0.448,-0.42666 -0.256,-1.408 0.0853,-0.42666 1.088,-3.28533 1.024,-2.85867 1.36533,-4.544 0.34133,-1.70667 0.27733,-3.136 1.45067,0.49067 1.87734,1.408 0.448,0.896 0.192,2.112 -0.23467,1.19467 -0.64,2.304 z"
           style="font-style:italic;font-variant:normal;font-weight:normal;font-stretch:normal;font-size:85.33333588px;line-height:1.25;font-family:'Merienda One';-inkscape-font-specification:'Merienda One Italic';letter-spacing:0px;word-spacing:0px;display:inline;fill:#468f72;fill-opacity:1;stroke:none;stroke-width:0.25"
           id="path1679"
           transform="matrix(0.52105335,0,0,0.55317057,-126.52519,-86.538013)" />
        <path
           inkscape:connector-curvature="0"
           d="m 447.47471,248.04101 q 0.40533,0 0.61867,0.0427 0.53333,0.10667 0.448,0.78933 -2.432,0.49067 -4.224,2.51734 -1.77067,2.02666 -2.21867,4.224 -0.512,2.56 1.04533,2.56 0.93867,0 1.89867,-1.024 1.68533,-1.856 3.008,-5.80267 1.04533,-3.11467 2.32533,-4.01067 0.61867,-0.448 1.472,-0.704 -0.768,2.26134 -0.98133,3.41334 -1.70667,8.53333 -4.39467,12.82133 -2.688,4.288 -6.80533,4.288 -1.664,0 -2.432,-0.896 -0.74667,-0.87467 -0.53333,-1.94133 0.21333,-1.04534 1.00266,-1.728 0.78934,-0.66134 1.984,-0.66134 0.49067,0 0.96,0.21334 -0.91733,0.53333 -1.13066,1.64266 -0.14934,0.74667 0.192,1.28 0.34133,0.55467 0.98133,0.55467 0.66133,0 1.19467,-0.27733 0.55466,-0.256 1.19466,-0.93867 0.64,-0.68267 1.23734,-1.70667 1.344,-2.368 2.26133,-6.464 -1.00267,1.83467 -2.47467,2.944 -1.472,1.10934 -2.77333,1.10934 -1.64267,0 -2.26133,-1.23734 -0.61867,-1.25866 -0.23467,-3.2 0.448,-2.26133 1.94133,-4.20266 1.664,-2.24 3.98934,-3.11467 1.28,-0.49067 2.70933,-0.49067 z"
           style="font-style:italic;font-variant:normal;font-weight:normal;font-stretch:normal;font-size:85.33333588px;line-height:1.25;font-family:'Merienda One';-inkscape-font-specification:'Merienda One Italic';letter-spacing:0px;word-spacing:0px;display:inline;fill:#468f72;fill-opacity:1;stroke:none;stroke-width:0.25"
           id="path1681"
           transform="matrix(0.52105335,0,0,0.55317057,-126.52519,-86.538013)" />
        <path
           inkscape:connector-curvature="0"
           d="m 455.13336,256.10501 q -0.21333,1.00266 0.0427,1.64266 0.256,0.61867 0.93867,0.61867 1.00266,0 2.13333,-1.17333 1.152,-1.17334 2.048,-3.008 0.91733,-1.83467 1.23733,-3.47734 0.34134,-1.664 0.42667,-2.688 0.64,-0.0426 0.896,-0.0426 1.088,0 1.55733,0.40534 0.46934,0.40533 0.27734,1.45066 -0.0853,0.40534 -1.17334,3.30667 -1.088,2.88 -1.45066,4.62933 -0.34134,1.728 0.0426,3.072 -1.536,-0.27733 -2.112,-1.17333 -0.55467,-0.91733 -0.21333,-2.624 0.064,-0.29867 0.32,-1.152 -0.98134,2.02667 -2.70934,3.264 -1.70666,1.23733 -3.136,1.23733 -1.408,0 -2.06933,-1.04533 -0.66133,-1.06667 -0.27733,-3.008 0.40533,-1.94133 1.45066,-3.75467 1.06667,-1.83466 2.70934,-3.09333 1.64266,-1.28 3.34933,-1.28 0.98133,0 1.89867,0.46933 -2.304,0.768 -4.032,3.02934 -1.728,2.24 -2.15467,4.39466 z"
           style="font-style:italic;font-variant:normal;font-weight:normal;font-stretch:normal;font-size:85.33333588px;line-height:1.25;font-family:'Merienda One';-inkscape-font-specification:'Merienda One Italic';letter-spacing:0px;word-spacing:0px;display:inline;fill:#468f72;fill-opacity:1;stroke:none;stroke-width:0.25"
           id="path1683"
           transform="matrix(0.52105335,0,0,0.55317057,-126.52519,-86.538013)" />
        <path
           inkscape:connector-curvature="0"
           d="m 471.79466,250.11034 q -0.256,0.768 -0.98133,2.66667 -1.536,4.032 -1.92,5.97333 -0.384,1.94133 -0.21333,2.60267 -1.55734,-0.42667 -2.00534,-1.30134 -0.448,-0.896 -0.128,-2.51733 0.29867,-1.42933 1.23734,-3.904 0.93866,-2.496 1.25866,-3.37067 -1.152,0.192 -2.51733,0.74667 0.0426,-0.46933 0.0853,-0.704 0.23467,-1.13067 1.00267,-1.536 0.768,-0.42667 2.048,-0.448 0.46933,-1.6 0.59733,-2.304 0.14934,-0.704 0.23467,-1.17333 0.0853,-0.46934 0.128,-0.704 1.38667,0.14933 1.87733,0.85333 0.512,0.68267 0.256,1.96267 -0.10666,0.512 -0.40533,1.42933 1.81333,-0.0427 2.77333,-0.704 -0.0426,0.42667 -0.0853,0.64 -0.21333,1.024 -0.66133,1.42933 -0.42667,0.384 -1.28,0.384 -0.85334,0 -1.30134,-0.0213 z"
           style="font-style:italic;font-variant:normal;font-weight:normal;font-stretch:normal;font-size:85.33333588px;line-height:1.25;font-family:'Merienda One';-inkscape-font-specification:'Merienda One Italic';letter-spacing:0px;word-spacing:0px;display:inline;fill:#468f72;fill-opacity:1;stroke:none;stroke-width:0.25"
           id="path1685"
           transform="matrix(0.52105335,0,0,0.55317057,-126.52519,-86.538013)" />
        <path
           inkscape:connector-curvature="0"
           d="m 476.91466,256.10501 q -0.21334,1.00266 0.0426,1.64266 0.256,0.61867 0.93866,0.61867 1.00267,0 2.13334,-1.17333 1.152,-1.17334 2.048,-3.008 0.91733,-1.83467 1.23733,-3.47734 0.34134,-1.664 0.42667,-2.688 0.64,-0.0426 0.896,-0.0426 1.088,0 1.55733,0.40534 0.46934,0.40533 0.27734,1.45066 -0.0853,0.40534 -1.17334,3.30667 -1.088,2.88 -1.45066,4.62933 -0.34134,1.728 0.0426,3.072 -1.536,-0.27733 -2.112,-1.17333 -0.55467,-0.91733 -0.21334,-2.624 0.064,-0.29867 0.32,-1.152 -0.98133,2.02667 -2.70933,3.264 -1.70667,1.23733 -3.136,1.23733 -1.408,0 -2.06933,-1.04533 -0.66134,-1.06667 -0.27734,-3.008 0.40534,-1.94133 1.45067,-3.75467 1.06667,-1.83466 2.70933,-3.09333 1.64267,-1.28 3.34934,-1.28 0.98133,0 1.89866,0.46933 -2.304,0.768 -4.032,3.02934 -1.728,2.24 -2.15466,4.39466 z"
           style="font-style:italic;font-variant:normal;font-weight:normal;font-stretch:normal;font-size:85.33333588px;line-height:1.25;font-family:'Merienda One';-inkscape-font-specification:'Merienda One Italic';letter-spacing:0px;word-spacing:0px;display:inline;fill:#468f72;fill-opacity:1;stroke:none;stroke-width:0.25"
           id="path1687"
           transform="matrix(0.52105335,0,0,0.55317057,-126.52519,-86.538013)" />
        <path
           inkscape:connector-curvature="0"
           d="m 493.95995,249.08634 q -0.59733,0 -1.152,0.40533 -0.55466,0.384 -0.704,1.10934 -0.128,0.72533 0.23467,1.36533 0.384,0.64 1.00267,1.13067 0.64,0.46933 1.25866,0.98133 0.64,0.49067 1.04534,1.23733 0.40533,0.72534 0.29866,1.62134 -0.29866,1.536 -1.83466,2.58133 -1.536,1.04533 -3.49867,1.04533 -1.96267,0 -2.92267,-0.78933 -0.96,-0.78933 -0.768,-1.81333 0.21334,-1.024 0.96,-1.64267 0.768,-0.64 1.70667,-0.64 0.49067,0 0.87467,0.17067 -0.832,0.72533 -1.00267,1.536 -0.14933,0.81066 0.192,1.30133 0.36267,0.49067 1.13067,0.49067 0.768,0 1.36533,-0.384 0.59733,-0.40534 0.72533,-1.024 0.128,-0.64 -0.14933,-1.13067 -0.256,-0.49067 -0.72533,-0.85333 -0.46934,-0.384 -1.024,-0.85334 -0.53334,-0.46933 -0.98134,-0.93866 -0.448,-0.49067 -0.66133,-1.216 -0.21333,-0.74667 -0.0427,-1.62134 0.29867,-1.51466 1.74934,-2.47466 1.45066,-0.98134 3.30666,-0.98134 1.87734,0 2.58134,0.72534 0.72533,0.72533 0.53333,1.70666 -0.192,0.96 -0.93867,1.64267 -0.74666,0.68267 -1.70666,0.68267 -0.46934,0 -1.024,-0.192 0.55466,-0.40534 0.896,-0.91734 0.36266,-0.53333 0.46933,-1.04533 0.10667,-0.512 -0.256,-0.85333 -0.34133,-0.36267 -0.93867,-0.36267 z"
           style="font-style:italic;font-variant:normal;font-weight:normal;font-stretch:normal;font-size:85.33333588px;line-height:1.25;font-family:'Merienda One';-inkscape-font-specification:'Merienda One Italic';letter-spacing:0px;word-spacing:0px;display:inline;fill:#468f72;fill-opacity:1;stroke:none;stroke-width:0.25"
           id="path1689"
           transform="matrix(0.52105335,0,0,0.55317057,-126.52519,-86.538013)" />
        <path
           style="fill:#3a775f;stroke-width:0.06941555;fill-opacity:1"
           d="m 99.478399,39.402523 c -0.367539,0.647059 -0.586185,1.505451 -1.349383,1.804304 -0.247489,0.142461 -0.510491,0.255578 -0.304431,-0.118919 0.233594,-0.806246 1.070684,-1.16977 1.653814,-1.685385 z"
           id="rect3759-6-5-5-8-3"
           inkscape:connector-curvature="0" />
        <path
           style="fill:#3a775f;stroke-width:0.06941555;fill-opacity:1"
           d="m 100.56998,41.412125 c -0.763377,-0.10639 -1.584496,-0.48715 -2.32633,-0.08514 -0.288179,0.104943 -0.489693,0.236359 -0.06952,0.302541 0.792765,0.314709 1.611176,-0.08488 2.39585,-0.217398 z"
           id="rect3759-6-5-5-2-9-1"
           inkscape:connector-curvature="0" />
      </g>
    </g>
  </g>
</svg>
